<svg xmlns="http://www.w3.org/2000/svg" width="900" height="1200" viewBox="0 0 900 1200">
  <defs>
    <linearGradient id="g" x1="0" y1="0" x2="0.6" y2="1">
      <stop offset="0%" stop-color="#5c2430"/>
      <stop offset="100%" stop-color="#7a3543"/>
    </linearGradient>
    <radialGradient id="glow" cx="0.5" cy="0.32" r="0.62">
      <stop offset="0%" stop-color="#ffffff" stop-opacity="0.30"/>
      <stop offset="100%" stop-color="#ffffff" stop-opacity="0"/>
    </radialGradient>
  </defs>
  <rect width="900" height="1200" fill="url(#g)"/>
  <path d="M0 340 C 280 250, 660 450, 900 310 L900 1200 L0 1200 Z"
      fill="#7a3543" opacity="0.18"/><path d="M0 450 C 180 360, 640 560, 900 420 L900 1200 L0 1200 Z"
      fill="#7a3543" opacity="0.27"/><path d="M0 600 C 200 510, 620 710, 900 570 L900 1200 L0 1200 Z"
      fill="#7a3543" opacity="0.36"/><path d="M0 710 C 220 620, 600 820, 900 680 L900 1200 L0 1200 Z"
      fill="#7a3543" opacity="0.45"/>
  <rect width="900" height="1200" fill="url(#glow)"/>
  <g font-family="Georgia, 'Times New Roman', serif" text-anchor="middle" fill="#f0dde1">
    <text x="450" y="556" font-size="46" letter-spacing="1">Aria Saten</text>
    <text x="450" y="606" font-size="20" letter-spacing="6" opacity="0.72"
      font-family="-apple-system, Helvetica, Arial, sans-serif">BORDO</text>
  </g>
</svg>