<svg xmlns="http://www.w3.org/2000/svg" width="900" height="1200" viewBox="0 0 900 1200">
  <defs>
    <linearGradient id="g" x1="0" y1="0" x2="0.6" y2="1">
      <stop offset="0%" stop-color="#eae2dc"/>
      <stop offset="100%" stop-color="#cdbfb5"/>
    </linearGradient>
    <radialGradient id="glow" cx="0.5" cy="0.32" r="0.62">
      <stop offset="0%" stop-color="#ffffff" stop-opacity="0.30"/>
      <stop offset="100%" stop-color="#ffffff" stop-opacity="0"/>
    </radialGradient>
  </defs>
  <rect width="900" height="1200" fill="url(#g)"/>
  <path d="M0 344 C 220 254, 684 454, 900 314 L900 1200 L0 1200 Z"
      fill="#cdbfb5" opacity="0.18"/><path d="M0 482 C 228 392, 676 592, 900 452 L900 1200 L0 1200 Z"
      fill="#cdbfb5" opacity="0.27"/><path d="M0 580 C 236 490, 668 690, 900 550 L900 1200 L0 1200 Z"
      fill="#cdbfb5" opacity="0.36"/><path d="M0 718 C 244 628, 660 828, 900 688 L900 1200 L0 1200 Z"
      fill="#cdbfb5" opacity="0.45"/>
  <rect width="900" height="1200" fill="url(#glow)"/>
  <g font-family="Georgia, 'Times New Roman', serif" text-anchor="middle" fill="#5b4c43">
    <text x="450" y="556" font-size="46" letter-spacing="1">Lena Dantelli</text>
    <text x="450" y="606" font-size="20" letter-spacing="6" opacity="0.72"
      font-family="-apple-system, Helvetica, Arial, sans-serif">BEYAZ</text>
  </g>
</svg>